<svg xmlns="http://www.w3.org/2000/svg" xmlns:xlink="http://www.w3.org/1999/xlink" width="78.885" height="85.672" viewBox="0 0 78.885 85.672">
  <defs>
    <clipPath id="clip-path">
      <rect id="Rectangle_851" data-name="Rectangle 851" width="78.885" height="85.672" fill="none"/>
    </clipPath>
  </defs>
  <g id="Group_938" data-name="Group 938" transform="translate(0 0)">
    <g id="Group_937" data-name="Group 937" transform="translate(0 0)" clip-path="url(#clip-path)">
      <path id="Path_8499" data-name="Path 8499" d="M77.879,23.017H75.692a22.817,22.817,0,0,0-2.97-7.166l1.55-1.55a2.1,2.1,0,0,0,0-2.961L70.12,7.192a2.094,2.094,0,0,0-2.961,0l-1.55,1.55a22.744,22.744,0,0,0-7.166-2.976V3.581a2.1,2.1,0,0,0-2.095-2.1H50.483a2.1,2.1,0,0,0-2.1,2.1V5.766a22.83,22.83,0,0,0-7.171,2.976l-1.549-1.55a2.094,2.094,0,0,0-2.961,0l-4.148,4.148a2.1,2.1,0,0,0,0,2.961l1.55,1.55a22.734,22.734,0,0,0-2.971,7.166h-2.19a2.1,2.1,0,0,0-2.1,2.1v5.87a2.1,2.1,0,0,0,2.1,2.095h2.19a22.734,22.734,0,0,0,2.971,7.166l-1.55,1.55a2.1,2.1,0,0,0,0,2.961L36.706,48.9a2.093,2.093,0,0,0,2.961,0l1.549-1.55a22.715,22.715,0,0,0,7.171,2.971V39.683a13.247,13.247,0,0,1-2.865-23.4c3.678-2.511,2.966,1.459,2.966,2.129v7.965a5.3,5.3,0,0,0,4.927,5.267,5.293,5.293,0,0,0,4.923-5.267V18.41c0-.67-.708-4.64,2.966-2.129a13.248,13.248,0,0,1-2.861,23.4V50.322a22.629,22.629,0,0,0,7.166-2.971l1.55,1.55a2.093,2.093,0,0,0,2.961,0l4.152-4.148a2.1,2.1,0,0,0,0-2.961l-1.55-1.55a22.818,22.818,0,0,0,2.97-7.166h2.187a2.1,2.1,0,0,0,2.1-2.095v-5.87a2.1,2.1,0,0,0-2.1-2.1" transform="translate(-2.439 -0.135)" fill="#d9ecfd"/>
      <path id="Path_8500" data-name="Path 8500" d="M4.211,63.158h6.75a2.8,2.8,0,0,1,2.794,2.794V83.666a2.8,2.8,0,0,1-2.794,2.789H4.211a2.8,2.8,0,0,1-2.789-2.789V65.952A2.8,2.8,0,0,1,4.211,63.158Z" transform="translate(-0.129 -5.738)" fill="none" stroke="#4f4e75" stroke-linecap="round" stroke-linejoin="round" stroke-width="2.846"/>
      <path id="Path_8501" data-name="Path 8501" d="M14.987,66.3H18.5a6.5,6.5,0,0,0,2.98-.626c6.764-2.669,12.289-2.98,19.058,3.391a2.59,2.59,0,0,0,2.387,1.019H52.1a4.552,4.552,0,1,1,0,9.1H37.226" transform="translate(-1.361 -5.803)" fill="none" stroke="#4f4e75" stroke-linecap="round" stroke-linejoin="round" stroke-width="2.846"/>
      <path id="Path_8502" data-name="Path 8502" d="M58.443,50.322a22.626,22.626,0,0,0,7.166-2.971l1.549,1.55a2.093,2.093,0,0,0,2.961,0l4.152-4.148a2.1,2.1,0,0,0,0-2.961l-1.549-1.549a22.839,22.839,0,0,0,2.97-7.166h2.187a2.1,2.1,0,0,0,2.095-2.1v-5.87a2.1,2.1,0,0,0-2.095-2.1H75.692a22.839,22.839,0,0,0-2.97-7.166l1.549-1.55a2.1,2.1,0,0,0,0-2.961L70.119,7.193a2.093,2.093,0,0,0-2.961,0L65.609,8.742a22.738,22.738,0,0,0-7.166-2.975V3.581a2.1,2.1,0,0,0-2.1-2.1H50.483a2.1,2.1,0,0,0-2.1,2.1V5.767a22.807,22.807,0,0,0-7.171,2.975l-1.55-1.549a2.093,2.093,0,0,0-2.961,0l-4.147,4.147a2.1,2.1,0,0,0,0,2.961l1.549,1.55a22.733,22.733,0,0,0-2.97,7.166H28.947a2.1,2.1,0,0,0-2.095,2.1v5.87a2.1,2.1,0,0,0,2.095,2.1h2.191a22.733,22.733,0,0,0,2.97,7.166l-1.549,1.549a2.1,2.1,0,0,0,0,2.961L36.705,48.9a2.093,2.093,0,0,0,2.961,0l1.55-1.55a22.694,22.694,0,0,0,7.171,2.971v2.191a2.1,2.1,0,0,0,2.1,2.1h5.864a2.1,2.1,0,0,0,2.1-2.1Z" transform="translate(-2.439 -0.135)" fill="none" stroke="#2623d4" stroke-width="2.97"/>
      <path id="Path_8503" data-name="Path 8503" d="M59.727,51.718V41.079a13.248,13.248,0,0,0,2.86-23.4c-3.674-2.512-2.966,1.459-2.966,2.128v7.965A5.292,5.292,0,0,1,54.7,33.038a5.3,5.3,0,0,1-4.927-5.267V19.806c0-.669.713-4.64-2.966-2.128a13.246,13.246,0,0,0,2.865,23.4V51.718" transform="translate(-3.723 -1.531)" fill="none" stroke="#2623d4" stroke-width="2.97"/>
      <path id="Path_8504" data-name="Path 8504" d="M56.1,72.5l14.662-7.53a4.4,4.4,0,0,1,4.625,7.477L53.854,87.787c-5.836,3.889-8.3,2.358-14.441.7l-17.47-4.673a4.506,4.506,0,0,0-1.7-.315H14.987" transform="translate(-1.361 -5.85)" fill="none" stroke="#4f4e75" stroke-linecap="round" stroke-linejoin="round" stroke-width="2.846"/>
    </g>
  </g>
</svg>
