<svg id="work_outline_black_24dp_1_" data-name="work_outline_black_24dp (1)" xmlns="http://www.w3.org/2000/svg" width="34" height="34" viewBox="0 0 34 34">
  <path id="Path_3730" data-name="Path 3730" d="M0,0H34V34H0Z" fill="none"/>
  <path id="Path_3731" data-name="Path 3731" d="M19.114,7.716V4.858h-5.7V7.716ZM4.852,10.575V26.3H27.67V10.575ZM27.67,7.716a2.845,2.845,0,0,1,2.852,2.858V26.3a2.845,2.845,0,0,1-2.852,2.858H4.852A2.845,2.845,0,0,1,2,26.3l.014-15.72A2.833,2.833,0,0,1,4.852,7.716h5.7V4.858A2.845,2.845,0,0,1,13.409,2h5.7a2.845,2.845,0,0,1,2.852,2.858V7.716Z" transform="translate(0.739 0.739)"/>
</svg>
