<svg width="48" height="48" viewBox="0 0 48 48" fill="none" xmlns="http://www.w3.org/2000/svg">
<g clip-path="url(#clip0_398_28299)">
<path d="M44.9999 0H3.00022C1.34339 0 0.000244141 1.34315 0.000244141 2.99998V36.9997C0.000244141 38.6566 1.34339 39.9997 3.00022 39.9997H27V37.9998H3.00022C2.44794 37.9998 2.0002 37.552 2.0002 36.9997V2.99998C2.0002 2.4477 2.44794 1.99995 3.00022 1.99995H44.9999C45.5522 1.99995 45.9999 2.4477 45.9999 2.99998V36.9997C45.9999 37.552 45.5522 37.9998 44.9999 37.9998H42.9999V39.9997H44.9999C46.6567 39.9997 47.9999 38.6566 47.9999 36.9997V2.99998C47.9999 1.34315 46.6567 0 44.9999 0Z" fill="#212137"/>
<path d="M41.9999 10C39.7908 10 37.9999 8.20913 37.9999 6.00002C37.9999 5.44775 37.5521 5 36.9998 5H11.0002C10.4479 5 10.0001 5.44775 10.0001 6.00002C10.0001 8.20913 8.20925 10 6.00015 10C5.44787 10 5.00012 10.4478 5.00012 11V28.9999C5.00012 29.5522 5.44787 29.9999 6.00015 29.9999C8.20925 29.9999 10.0001 31.7908 10.0001 33.9999C10.0001 34.5522 10.4479 35 11.0002 35H24.0001V32.9998H11.9171C11.487 30.4838 9.51621 28.513 7.00017 28.0829V11.917C9.51621 11.4869 11.487 9.51609 11.9171 7.00005H36.083C36.5131 9.51609 38.4839 11.4869 40.9999 11.917V20H42.9999V11C42.9999 10.4477 42.5521 10 41.9999 10Z" fill="#212137"/>
<path d="M34.9999 20.9998C30.0294 20.9998 26 25.0292 26 29.9997C26 34.9702 30.0294 38.9996 34.9999 38.9996C39.968 38.9935 43.9938 34.9677 43.9999 29.9997C43.9999 25.0292 39.9704 20.9998 34.9999 20.9998ZM34.9999 36.9997C31.134 36.9997 28 33.8657 28 29.9997C28 26.1337 31.1339 22.9997 34.9999 22.9997C38.8641 23.0041 41.9955 26.1355 41.9999 29.9997C41.9998 33.8656 38.8659 36.9997 34.9999 36.9997Z" fill="#212137"/>
<path d="M38.9999 35.9998V44.9187L35.6249 42.2187C35.2595 41.9262 34.7403 41.9262 34.3749 42.2187L31 44.9187V35.9998H29V46.9996C28.9999 47.227 29.0772 47.4476 29.2194 47.625C29.5646 48.0562 30.1939 48.1258 30.625 47.7807L35 44.2807L39.3749 47.7807C39.5523 47.9225 39.7728 47.9998 40 47.9997C40.5523 47.9997 41 47.5519 41 46.9996V35.9998H38.9999Z" fill="#212137"/>
<path d="M34 10H14.0001C13.4479 10 13.0001 10.4477 13.0001 11V14.9999C13.0001 15.5522 13.4479 16 14.0001 16H34C34.5522 16 35 15.5522 35 14.9999V10.9999C35 10.4477 34.5522 10 34 10ZM32.9999 13.9999H15.0001V12H32.9999V13.9999Z" fill="#212137"/>
<path d="M14.0001 19H12.0001V21H14.0001V19Z" fill="#212137"/>
<path d="M18.0001 19H16.0001V21H18.0001V19Z" fill="#212137"/>
<path d="M24 22.9998H12.0001V24.9997H24V22.9998Z" fill="#212137"/>
<path d="M34.9999 24.9998C32.2385 24.9998 30 27.2383 30 29.9997C30 32.7611 32.2385 34.9996 34.9999 34.9996C37.76 34.9963 39.9966 32.7597 39.9999 29.9997C39.9999 27.2383 37.7613 24.9998 34.9999 24.9998ZM34.9999 32.9997C33.3431 32.9997 32 31.6565 32 29.9997C32 28.3429 33.3431 26.9997 34.9999 26.9997C36.6568 26.9997 37.9999 28.3429 37.9999 29.9997C37.9999 31.6565 36.6568 32.9997 34.9999 32.9997Z" fill="#212137"/>
<path d="M7.0002 32.9998H5.00024V34.9997H7.0002V32.9998Z" fill="#212137"/>
<path d="M42.9998 5H40.9999V6.99995H42.9998V5Z" fill="#212137"/>
<path d="M7.0002 5H5.00024V6.99995H7.0002V5Z" fill="#212137"/>
</g>
<defs>
<clipPath id="clip0_398_28299">
<rect width="48" height="48" fill="white"/>
</clipPath>
</defs>
</svg>
