<svg xmlns="http://www.w3.org/2000/svg" xmlns:xlink="http://www.w3.org/1999/xlink" width="34" height="34" viewBox="0 0 34 34">
  <defs>
    <clipPath id="clip-path">
      <rect id="Rectangle_641" data-name="Rectangle 641" width="34" height="34" transform="translate(94 3047)" fill="none" stroke="#000" stroke-width="1.6"/>
    </clipPath>
  </defs>
  <g id="Mask_Group_138" data-name="Mask Group 138" transform="translate(-94 -3047)" clip-path="url(#clip-path)">
    <g id="fire" transform="translate(99.1 3048.133)">
      <g id="Group_364" data-name="Group 364" transform="translate(0 0)">
        <path id="Path_345" data-name="Path 345" d="M87.732,18.579c-.364-4.733-2.567-7.7-4.511-10.316-1.8-2.423-3.355-4.515-3.355-7.6a.662.662,0,0,0-.359-.588.655.655,0,0,0-.687.05,16.814,16.814,0,0,0-6.206,8.97,29.279,29.279,0,0,0-.68,6.7c-2.7-.576-3.307-4.609-3.313-4.653a.661.661,0,0,0-.943-.5c-.141.068-3.47,1.76-3.664,8.513-.014.225-.014.45-.014.675a11.913,11.913,0,0,0,11.9,11.9.092.092,0,0,0,.026,0h.008A11.914,11.914,0,0,0,87.8,19.833C87.8,19.5,87.732,18.579,87.732,18.579ZM75.9,27.86a4.107,4.107,0,0,1-3.967-4.225c0-.079,0-.159.005-.258a5.359,5.359,0,0,1,.418-2.1,2.414,2.414,0,0,0,2.183,1.581A.661.661,0,0,0,75.2,22.2a13.225,13.225,0,0,1,.254-3.007,6.393,6.393,0,0,1,1.338-2.535,8.518,8.518,0,0,0,1.363,2.5,7.532,7.532,0,0,1,1.695,4.128c.008.114.017.228.017.351A4.107,4.107,0,0,1,75.9,27.86Z" transform="translate(-64 0)" fill="none" stroke="#000" stroke-width="1.6"/>
      </g>
    </g>
  </g>
</svg>
