<svg id="Group_879" data-name="Group 879" xmlns="http://www.w3.org/2000/svg" xmlns:xlink="http://www.w3.org/1999/xlink" width="80.564" height="82.238" viewBox="0 0 80.564 82.238">
  <defs>
    <clipPath id="clip-path">
      <rect id="Rectangle_817" data-name="Rectangle 817" width="80.564" height="82.238" fill="none"/>
    </clipPath>
  </defs>
  <g id="Group_878" data-name="Group 878" clip-path="url(#clip-path)">
    <path id="Path_8400" data-name="Path 8400" d="M59.481,32.005a8.877,8.877,0,0,1,17.025-.02" transform="translate(-1.223 -0.527)" fill="#d9ecfd"/>
    <path id="Path_8401" data-name="Path 8401" d="M71.97,21.6h0a3.876,3.876,0,1,1-3.876-3.876A3.876,3.876,0,0,1,71.97,21.6" transform="translate(-1.321 -0.364)" fill="#d9ecfd"/>
    <path id="Path_8402" data-name="Path 8402" d="M80.238,22.788A12.322,12.322,0,1,1,67.917,10.467,12.321,12.321,0,0,1,80.238,22.788" transform="translate(-1.144 -0.215)" fill="#d9ecfd"/>
    <path id="Path_8403" data-name="Path 8403" d="M46.5,57.793c1.848-4.738,3.021-11.785,3.021-19.65,0-14.27-3.856-25.837-8.613-25.837S32.3,23.872,32.3,38.142c0,7.8,1.153,14.8,2.976,19.534" transform="translate(-0.664 -0.253)" fill="none" stroke="#4f4e75" stroke-width="2.846"/>
    <line id="Line_129" data-name="Line 129" x2="48.283" transform="translate(16.103 46.502)" fill="none" stroke="#4f4e75" stroke-width="2.846"/>
    <line id="Line_130" data-name="Line 130" x2="32.015" transform="translate(24.055 29.277)" fill="none" stroke="#4f4e75" stroke-width="2.846"/>
    <path id="Path_8404" data-name="Path 8404" d="M32.4,78.92A8.876,8.876,0,0,1,49.42,78.9" transform="translate(-0.666 -1.492)" fill="none" stroke="#4f4e75" stroke-width="2.846"/>
    <path id="Path_8405" data-name="Path 8405" d="M44.884,68.511h0a3.876,3.876,0,1,1-3.876-3.876A3.876,3.876,0,0,1,44.884,68.511Z" transform="translate(-0.764 -1.329)" fill="none" stroke="#4f4e75" stroke-width="2.846"/>
    <path id="Path_8406" data-name="Path 8406" d="M53.152,69.7A12.322,12.322,0,1,1,40.83,57.381,12.321,12.321,0,0,1,53.152,69.7Z" transform="translate(-0.586 -1.18)" fill="none" stroke="#4f4e75" stroke-width="2.846"/>
    <path id="Path_8407" data-name="Path 8407" d="M5.309,32.005a8.876,8.876,0,0,1,17.025-.02" transform="translate(-0.109 -0.527)" fill="none" stroke="#4f4e75" stroke-width="2.846"/>
    <path id="Path_8408" data-name="Path 8408" d="M17.8,21.6h0a3.876,3.876,0,1,1-3.876-3.876A3.876,3.876,0,0,1,17.8,21.6Z" transform="translate(-0.207 -0.364)" fill="none" stroke="#4f4e75" stroke-width="2.846"/>
    <path id="Path_8409" data-name="Path 8409" d="M26.066,22.788A12.322,12.322,0,1,1,13.745,10.467,12.321,12.321,0,0,1,26.066,22.788Z" transform="translate(-0.029 -0.215)" fill="none" stroke="#4f4e75" stroke-width="2.846"/>
    <path id="Path_8410" data-name="Path 8410" d="M56.213,17.43a25.846,25.846,0,0,0-30.929.024" transform="translate(-0.52 -0.253)" fill="none" stroke="#4f4e75" stroke-width="2.846"/>
    <path id="Path_8411" data-name="Path 8411" d="M51.519,62.361A25.842,25.842,0,0,0,67.142,38.621a26.144,26.144,0,0,0-.175-3.025" transform="translate(-1.06 -0.732)" fill="none" stroke="#4f4e75" stroke-width="2.846"/>
    <path id="Path_8412" data-name="Path 8412" d="M14.884,35.6a26.144,26.144,0,0,0-.175,3.025A25.844,25.844,0,0,0,30.331,62.361" transform="translate(-0.303 -0.732)" fill="none" stroke="#4f4e75" stroke-width="2.846"/>
    <path id="Path_8413" data-name="Path 8413" d="M77.123,31.347A36.554,36.554,0,0,1,53.008,73.123" transform="translate(-1.09 -0.645)" fill="none" stroke="#4f4e75" stroke-width="2.846"/>
    <path id="Path_8414" data-name="Path 8414" d="M28.136,73.123A36.548,36.548,0,0,1,4.021,31.347" transform="translate(-0.068 -0.645)" fill="none" stroke="#4f4e75" stroke-width="2.846"/>
    <path id="Path_8415" data-name="Path 8415" d="M16.476,10.518a36.5,36.5,0,0,1,48.215,0" transform="translate(-0.339 -0.029)" fill="none" stroke="#4f4e75" stroke-width="2.846"/>
    <path id="Path_8416" data-name="Path 8416" d="M59.481,32.005a8.877,8.877,0,0,1,17.025-.02" transform="translate(-1.223 -0.527)" fill="none" stroke="#2623d4" stroke-width="3"/>
    <path id="Path_8417" data-name="Path 8417" d="M71.97,21.6h0a3.876,3.876,0,1,1-3.876-3.876A3.876,3.876,0,0,1,71.97,21.6Z" transform="translate(-1.321 -0.364)" fill="none" stroke="#2623d4" stroke-width="3"/>
    <path id="Path_8418" data-name="Path 8418" d="M80.238,22.788A12.322,12.322,0,1,1,67.917,10.467,12.321,12.321,0,0,1,80.238,22.788Z" transform="translate(-1.144 -0.215)" fill="none" stroke="#2623d4" stroke-width="3"/>
  </g>
</svg>
