<svg id="Group_905" data-name="Group 905" xmlns="http://www.w3.org/2000/svg" xmlns:xlink="http://www.w3.org/1999/xlink" width="90.063" height="90.529" viewBox="0 0 90.063 90.529">
  <defs>
    <clipPath id="clip-path">
      <rect id="Rectangle_828" data-name="Rectangle 828" width="90.063" height="90.529" transform="translate(0 0)" fill="none"/>
    </clipPath>
  </defs>
  <g id="Group_904" data-name="Group 904" clip-path="url(#clip-path)">
    <path id="Path_8445" data-name="Path 8445" d="M68.986,25.717A24.231,24.231,0,1,1,44.754,1.485,24.232,24.232,0,0,1,68.986,25.717" fill="#d9ecfd"/>
    <path id="Path_8446" data-name="Path 8446" d="M66.456,66.82h0a5.392,5.392,0,0,1,5.393,5.393v1.859a5.393,5.393,0,0,1-10.786,0V72.213A5.392,5.392,0,0,1,66.456,66.82Z" fill="none" stroke="#4f4e75" stroke-linecap="round" stroke-linejoin="round" stroke-width="2.846"/>
    <path id="Path_8447" data-name="Path 8447" d="M23.607,66.82h0a5.392,5.392,0,0,0-5.393,5.393v1.859a5.393,5.393,0,0,0,10.786,0V72.213A5.392,5.392,0,0,0,23.607,66.82Z" fill="none" stroke="#4f4e75" stroke-linecap="round" stroke-linejoin="round" stroke-width="2.846"/>
    <path id="Path_8448" data-name="Path 8448" d="M55.744,79.61H66.135A16.74,16.74,0,0,0,81.762,68.864a3.546,3.546,0,0,1,3.963-2.247l.046.009a3.526,3.526,0,0,1,2.638,4.717,23.846,23.846,0,0,1-11.539,12.8v4.96H55.744" fill="none" stroke="#4f4e75" stroke-linecap="round" stroke-linejoin="round" stroke-width="2.846"/>
    <path id="Path_8449" data-name="Path 8449" d="M34.319,79.61H23.928A16.74,16.74,0,0,1,8.3,68.864a3.546,3.546,0,0,0-3.963-2.247l-.046.009a3.526,3.526,0,0,0-2.638,4.717,23.846,23.846,0,0,0,11.539,12.8v4.96H34.319" fill="none" stroke="#4f4e75" stroke-linecap="round" stroke-linejoin="round" stroke-width="2.846"/>
    <path id="Path_8450" data-name="Path 8450" d="M45.032,56.273h0a5.455,5.455,0,0,0-5.455,5.455v1.881a5.455,5.455,0,1,0,10.91,0V61.728A5.455,5.455,0,0,0,45.032,56.273Z" fill="none" stroke="#4f4e75" stroke-linecap="round" stroke-linejoin="round" stroke-width="2.846"/>
    <path id="Path_8451" data-name="Path 8451" d="M65.586,52.647a3.548,3.548,0,0,0-4.145,2.825,16.729,16.729,0,0,1-32.864,0,3.546,3.546,0,1,0-6.969,1.32A23.8,23.8,0,0,0,34.274,73.6V89.106h21.47V73.6A23.8,23.8,0,0,0,68.411,56.792,3.547,3.547,0,0,0,65.586,52.647Z" fill="none" stroke="#4f4e75" stroke-linecap="round" stroke-linejoin="round" stroke-width="2.846"/>
    <path id="Path_8452" data-name="Path 8452" d="M65.353,14.554H60.115a8.958,8.958,0,0,0-6.676,2.985,4.8,4.8,0,0,0,3.579,8h2.638l1.73,4.572-1.343,2.118a.792.792,0,0,0-.008.836l3.9,6.4" fill="none" stroke="#2623d4" stroke-width="3"/>
    <path id="Path_8453" data-name="Path 8453" d="M45.8,48.958l-2.969-8.421a1.6,1.6,0,0,0-1.505-1.066h-.472a1.6,1.6,0,0,1-1.186-.528L37.743,36.8a4.111,4.111,0,0,1-.791-4.209l.565-1.491a4.112,4.112,0,0,1,3.846-2.655h1.746a5.028,5.028,0,0,1,4.186,2.24,1.6,1.6,0,0,0,1.329.711h2.664a1.6,1.6,0,0,1,1.6,1.6V38a1.6,1.6,0,0,1-.517,1.177l-.623.571a1.592,1.592,0,0,0-.458.744L49,48.614" fill="none" stroke="#2623d4" stroke-width="3"/>
    <path id="Path_8454" data-name="Path 8454" d="M21.752,27.012h0a7.3,7.3,0,0,1,4.165,1.305l1.155.8a2.3,2.3,0,0,0,3.607-1.886v-.944a2.514,2.514,0,0,1,2.513-2.514,2.515,2.515,0,0,0,2-.995L41.092,15a4.814,4.814,0,0,0-.483-6.36L35.917,4.077" fill="none" stroke="#2623d4" stroke-width="3"/>
    <path id="Path_8455" data-name="Path 8455" d="M68.986,25.717A24.231,24.231,0,1,1,44.754,1.485,24.232,24.232,0,0,1,68.986,25.717Z" fill="none" stroke="#2623d4" stroke-width="2.97"/>
  </g>
</svg>
