<svg xmlns="http://www.w3.org/2000/svg" xmlns:xlink="http://www.w3.org/1999/xlink" width="102" height="102" viewBox="0 0 102 102">
  <defs>
    <clipPath id="clip-path">
      <rect id="Rectangle_629" data-name="Rectangle 629" width="102" height="102" transform="translate(1012 4197)" fill="none" stroke="#707070" stroke-width="1"/>
    </clipPath>
  </defs>
  <g id="Mask_Group_122" data-name="Mask Group 122" transform="translate(-1012 -4197)" clip-path="url(#clip-path)">
    <rect id="Rectangle_366" data-name="Rectangle 366" width="59" height="22" rx="11" transform="translate(1035 4209)" fill="#d9ecfd" stroke="#2623d4" stroke-width="2"/>
    <path id="Path_3658" data-name="Path 3658" d="M1132.55,293.623a4.4,4.4,0,0,0,6.22,0l4.94-4.941a4.4,4.4,0,0,0,0-6.224l-16.3-16.3a4.408,4.408,0,0,0-6.23,0l-7.01,7.016-3.41,3.409-.15.147a7.075,7.075,0,0,0-9.51.422l-.71.7c-.09-.075-.18-.172-.27-.235a7.131,7.131,0,0,0-8.41,0c-.09.065-.19.169-.29.244l-8.12-8.116a.737.737,0,0,0-.13-.091l-2.36-2.357a4.5,4.5,0,0,0-6.22,0l-16.3,16.3a4.4,4.4,0,0,0,0,6.224l4.94,4.943a4.407,4.407,0,0,0,6.22,0l.3-.294,10.44,10.437a.856.856,0,0,0-.11.088,4.678,4.678,0,0,0,0,6.62,4.627,4.627,0,0,0,3.19,1.36,4.628,4.628,0,0,0,4.54,4.547,4.642,4.642,0,0,0,4.55,4.547,4.669,4.669,0,0,0,9.22.936,4.863,4.863,0,0,0,1.19.169,4.5,4.5,0,0,0,4.56-4.547,4.486,4.486,0,0,0,4.55-4.548,4.494,4.494,0,0,0,4.55-4.506,4.651,4.651,0,0,0,4.58-4.977l11.25-11.26Zm-9.3-25.39a1.473,1.473,0,0,1,2.08,0l16.31,16.3a1.47,1.47,0,0,1,0,2.073l-4.95,4.943a1.5,1.5,0,0,1-2.07,0l-17.34-17.344Zm-57.94,24.452-4.95-4.943a1.467,1.467,0,0,1,0-2.075l16.31-16.3a1.461,1.461,0,0,1,2.07,0l5.98,5.979-16,16.006-1.34,1.333A1.466,1.466,0,0,1,1065.31,292.685Zm16.85,14.375a1.747,1.747,0,0,1,2.47,2.472,1.788,1.788,0,0,1-2.47,0,1.753,1.753,0,0,1-.01-2.472Zm4.55,4.547a1.747,1.747,0,0,1,2.47,2.471,1.79,1.79,0,0,1-2.47,0,1.744,1.744,0,0,1-.01-2.472Zm4.54,4.548a1.75,1.75,0,0,1,2.99,1.235,1.778,1.778,0,0,1-.51,1.235,1.8,1.8,0,0,1-2.48,0,1.754,1.754,0,0,1-.01-2.473Zm7.02,7.016a1.753,1.753,0,1,1,.51-1.237,1.748,1.748,0,0,1-.51,1.237Zm19.32-17.045a1.788,1.788,0,0,1-2.47,0l-9.1-9.1a1.466,1.466,0,0,0-2.07,2.076l8.94,8.939a2.07,2.07,0,0,1,.61,1.389,1.613,1.613,0,0,1-.46,1.232,1.877,1.877,0,0,1-2.63-.147l-8.93-8.938a1.469,1.469,0,1,0-2.08,2.074l8.93,8.934a2.042,2.042,0,0,1,.62,1.391,1.653,1.653,0,0,1-.46,1.232,1.876,1.876,0,0,1-2.63-.147l-8.94-8.938a1.465,1.465,0,0,0-2.07,2.074l8.94,8.938a1.76,1.76,0,1,1-2.47,2.471l-.99-.989a4.664,4.664,0,0,0-3.19-1.356,4.64,4.64,0,0,0-4.54-4.544,4.643,4.643,0,0,0-4.55-4.547,4.563,4.563,0,0,0-4.93-4.492l-11.3-11.294,15-15,3.57,3.578c.04.027.08.052.12.074s.06.069.09.1c.05.022.1.043.15.06a1.558,1.558,0,0,0,.27.114,1.606,1.606,0,0,0,.27.053c.05,0,.09.028.15.028a.99.99,0,0,0,.13-.026,1.435,1.435,0,0,0,.27-.054,1.276,1.276,0,0,0,.26-.1,1.367,1.367,0,0,0,.24-.163.827.827,0,0,0,.13-.085c.03-.037.05-.075.08-.114s.07-.058.1-.1a2.293,2.293,0,0,1,.32-.379,2.953,2.953,0,0,1,.46-.385,4.185,4.185,0,0,1,4.88-.058l-6.87,6.869a4.681,4.681,0,0,0,6.62,6.619l4.65-4.645,14.87,14.874a1.749,1.749,0,0,1,0,2.469Zm2.16-4.449-.1-.1-7.87-7.873-4.57-4.574a7.022,7.022,0,0,0,3.92-1.962,5.212,5.212,0,0,0,.69-.82,1.467,1.467,0,0,0-2.42-1.657,2.668,2.668,0,0,1-.35.4,4.155,4.155,0,0,1-5.42.387,1.459,1.459,0,0,0-1.48-.146,1.506,1.506,0,0,0-.35.234c-.05.028-.09.059-.14.093l-5.67,5.683a1.8,1.8,0,0,1-2.47,0,1.752,1.752,0,0,1,0-2.472l7.67-7.675c.02-.014.05-.019.07-.035a1.346,1.346,0,0,0,.41-.44l1.5-1.5a4.166,4.166,0,0,1,5.88,0,2.8,2.8,0,0,1,.35.408c.05.056.09.108.14.157.02.016.02.036.04.051s.01.011.02.018a1.6,1.6,0,0,0,.42.28l.1.037a1.5,1.5,0,0,0,.49.1,1.48,1.48,0,0,0,.5-.1c.05-.02.09-.043.14-.068a1.113,1.113,0,0,0,.19-.092c.04-.026.06-.067.1-.1s.08-.043.11-.077l3.55-3.553,14.97,14.961Z" transform="translate(-37 3963)" fill="#4f4e75"/>
    <path id="Path_3659" data-name="Path 3659" d="M1067.48,285.57a1.613,1.613,0,1,0,0,2.272A1.614,1.614,0,0,0,1067.48,285.57Z" transform="translate(-37 3963)"/>
    <path id="Path_3660" data-name="Path 3660" d="M1136.79,286.707a1.609,1.609,0,1,0-2.27,0A1.6,1.6,0,0,0,1136.79,286.707Z" transform="translate(-37 3963)"/>
    <path id="Path_3661" data-name="Path 3661" d="M1081.65,262.074v-10.08h1.9v4.144h4.51v-4.144h1.9v10.08h-1.9v-4.158h-4.51v4.158Zm10.14,0v-10.08h1.9v10.08Zm3.72,0v-10.08h4.26c.1,0,.23,0,.39.014a3.138,3.138,0,0,1,.45.042,3.076,3.076,0,0,1,1.47.6,2.658,2.658,0,0,1,.86,1.148,4.158,4.158,0,0,1,.27,1.533,3.7,3.7,0,0,1-.63,2.17,2.811,2.811,0,0,1-1.97,1.106l-.84.056h-2.35v3.416Zm5.69,0-1.99-4.1,1.96-.378,2.18,4.48Zm-3.78-5.194h2.26c.1,0,.21,0,.33-.014a1.723,1.723,0,0,0,.32-.056,1.169,1.169,0,0,0,.59-.35,1.384,1.384,0,0,0,.29-.553,2.042,2.042,0,0,0,.08-.581,1.977,1.977,0,0,0-.08-.574,1.333,1.333,0,0,0-.29-.553,1.15,1.15,0,0,0-.59-.357,1.812,1.812,0,0,0-.32-.056c-.12-.009-.23-.014-.33-.014h-2.26Zm7.19,5.194v-10.08h6.58v1.778h-4.68v2.156h3.84v1.778h-3.84v2.59h4.68v1.778Zm7.98,0v-10.08h3.26c.08,0,.24,0,.49.007a6.75,6.75,0,0,1,.71.049,3.909,3.909,0,0,1,2.07.847,4.561,4.561,0,0,1,1.29,1.778,6.545,6.545,0,0,1,0,4.718,4.546,4.546,0,0,1-1.29,1.778,3.9,3.9,0,0,1-2.07.847,6.5,6.5,0,0,1-.71.049c-.25.005-.41.007-.49.007Zm1.93-1.792h1.33c.13,0,.3,0,.51-.007a3.869,3.869,0,0,0,.58-.063,1.82,1.82,0,0,0,1.07-.616,3.015,3.015,0,0,0,.62-1.162,5.045,5.045,0,0,0,.2-1.4,4.831,4.831,0,0,0-.21-1.435,2.9,2.9,0,0,0-.62-1.148,1.86,1.86,0,0,0-1.06-.6,3.044,3.044,0,0,0-.58-.063c-.21,0-.38-.007-.51-.007h-1.33Z" transform="translate(-37 3963)" fill="#2623d4"/>
  </g>
</svg>
