<svg xmlns="http://www.w3.org/2000/svg" xmlns:xlink="http://www.w3.org/1999/xlink" width="102" height="102" viewBox="0 0 102 102">
  <defs>
    <clipPath id="clip-path">
      <rect id="Rectangle_628" data-name="Rectangle 628" width="102" height="102" transform="translate(720 4197)" fill="none" stroke="#707070" stroke-width="1"/>
    </clipPath>
    <clipPath id="clip-path-2">
      <rect id="Rectangle_369" data-name="Rectangle 369" width="88" height="88" transform="translate(762 240)" fill="#fff"/>
    </clipPath>
  </defs>
  <g id="Mask_Group_123" data-name="Mask Group 123" transform="translate(-720 -4197)" clip-path="url(#clip-path)">
    <g id="Group_424" data-name="Group 424" transform="translate(-37 3963)" clip-path="url(#clip-path-2)">
      <path id="Path_3689" data-name="Path 3689" d="M812,242h36v24H812v-5.75l-8-5.75,8-6.25Z" fill="#d9ecfd"/>
      <path id="Path_3690" data-name="Path 3690" d="M814.263,240H845.85a4.333,4.333,0,0,1,4.15,4.443v19.9a4.333,4.333,0,0,1-4.15,4.443H814.263a4.321,4.321,0,0,1-4.151-4.443v-3.6l-6.722-3.43a2.959,2.959,0,0,1,0-5.2c2.241-1.15,4.481-2.28,6.722-3.43v-4.228A4.32,4.32,0,0,1,814.263,240Zm31.587,2.747H814.263a1.585,1.585,0,0,0-1.4,1.7v5.066a1.34,1.34,0,0,1-.76,1.208c-2.495,1.287-4.969,2.573-7.463,3.839a.166.166,0,0,0,0,.293l7.347,3.78a1.36,1.36,0,0,1,.877,1.267v4.442a1.585,1.585,0,0,0,1.4,1.7H845.85a1.585,1.585,0,0,0,1.4-1.7v-19.9A1.585,1.585,0,0,0,845.85,242.747Z" fill="#2623d4"/>
      <path id="Path_3691" data-name="Path 3691" d="M820.05,249.684a1.374,1.374,0,0,1,0-2.747h20.616a1.374,1.374,0,0,1,0,2.747Zm0,12.179a1.374,1.374,0,0,1,0-2.748h12.238a1.374,1.374,0,0,1,0,2.748Zm0-6.1a1.374,1.374,0,0,1,0-2.748h20.616a1.374,1.374,0,0,1,0,2.748Z" fill="#2623d4"/>
      <path id="Path_3692" data-name="Path 3692" d="M779.694,266.014a7.2,7.2,0,0,1-1.092-.526l-.215,1.578,4.521,5.086,4.5-5.086-.214-1.578a7.915,7.915,0,0,1-1.072.526A9.825,9.825,0,0,1,779.694,266.014Zm-3.586-2.533-.136-.117a9.461,9.461,0,0,1-3.137-7.249V249.8c0-5.963,4.209-9.8,10.074-9.8s10.055,3.838,10.055,9.8v6.314a9.465,9.465,0,0,1-3.137,7.249l-.137.117.448,3.312,2.358,2.066,6.684,2.9a7.691,7.691,0,0,1,3.391,2.884,8.05,8.05,0,0,1,1.228,4.325v3.8a1.373,1.373,0,0,1-1.364,1.384,1.389,1.389,0,0,1-1.384-1.384v-3.8a5.123,5.123,0,0,0-.8-2.845,4.908,4.908,0,0,0-2.163-1.85l-5.475-2.378-2.3,7.191a1.372,1.372,0,0,1-1.715.9,1.507,1.507,0,0,1-.389-.214l-3.937-2.865v5.865a1.372,1.372,0,0,1-1.363,1.384,1.39,1.39,0,0,1-1.385-1.384v-5.865l-3.917,2.884s-.37.175-.409.2a1.381,1.381,0,0,1-1.714-.9l-2.28-7.19-5.495,2.377a4.909,4.909,0,0,0-2.163,1.851,5.283,5.283,0,0,0-.8,2.845v17.244a1.372,1.372,0,0,1-1.364,1.384A1.388,1.388,0,0,1,762,296.218V278.972a7.9,7.9,0,0,1,1.247-4.325,7.529,7.529,0,0,1,3.371-2.884l6.684-2.9,2.358-2.065Zm2.28-1.637a.92.92,0,0,1,.2.194,7.269,7.269,0,0,0,2.1,1.423,7.449,7.449,0,0,0,4.424,0,7.277,7.277,0,0,0,2.1-1.423,1.048,1.048,0,0,1,.215-.194c.195-.175.389-.351.565-.527a6.743,6.743,0,0,0,2.221-5.2v-2.923c-5.047.955-7.912-1.344-9.373-3.253a5.24,5.24,0,0,1-5.242,1.733v4.443a6.727,6.727,0,0,0,2.2,5.2Zm-1.559,7.58-1.208,1.052,1.89,5.963,3.371-2.455Zm12.14,0-4.033,4.56,3.351,2.455,1.891-5.963Zm-18.9,17.6a1.39,1.39,0,0,1,1.384-1.384,1.372,1.372,0,0,1,1.364,1.384v9.2a1.372,1.372,0,0,1-1.364,1.383,1.388,1.388,0,0,1-1.384-1.383Zm5.574-38.155a3.118,3.118,0,0,0,3.956-2.144,1.356,1.356,0,0,1,2.572.1s1.733,5.008,8.047,3.566V249.8c0-4.443-2.961-7.054-7.307-7.054C778.992,242.747,776.05,244.871,775.641,248.866Z" fill="#4f4e75"/>
      <path id="Path_3693" data-name="Path 3693" d="M819.154,299.882a10.44,10.44,0,0,1-3.741-8.263v-7.132c0-6.606,4.657-10.873,11.185-10.873,6.509,0,11.165,4.268,11.165,10.873v7.132a10.426,10.426,0,0,1-3.721,8.263l.546,5.67L844.9,309.43A8.562,8.562,0,0,1,850,317.4v9.217A1.39,1.39,0,0,1,848.617,328a1.373,1.373,0,0,1-1.364-1.384V317.4a5.764,5.764,0,0,0-3.43-5.437l-10.989-4.15a20.825,20.825,0,0,0-12.432-.351l-11.049,4.5a5.779,5.779,0,0,0-3.41,5.437v9.217A1.39,1.39,0,0,1,804.559,328a1.372,1.372,0,0,1-1.363-1.384V317.4a8.561,8.561,0,0,1,5.105-7.97l10.348-4.209Zm11.633,1.363h-8.4a.694.694,0,0,0-.682.623l-.234,2.495a23.712,23.712,0,0,1,10.269.292l-.273-2.787A.668.668,0,0,0,830.787,301.245Zm-8.515-2.708H830.9a2.973,2.973,0,0,0,1.676-.994,7.881,7.881,0,0,0,2.436-5.924v-7.132c0-5.106-3.41-8.126-8.418-8.126s-8.438,3.021-8.438,8.126v7.132a7.9,7.9,0,0,0,2.788,6.216A2.215,2.215,0,0,0,822.272,298.537Z" fill="#4f4e75"/>
      <path id="Path_3694" data-name="Path 3694" d="M776.147,299.589l2.279-13.055a4.529,4.529,0,0,1,4.288-3.645h23.168A3.416,3.416,0,0,1,809.293,287l-2.923,16.66a4.821,4.821,0,0,1-4.58,3.9H772a3.408,3.408,0,0,1-3.43-2.417l-.935-3.839a1.38,1.38,0,0,1,1.325-1.714Zm17.5-5.787a1.356,1.356,0,0,1,1.364,1.363,1.373,1.373,0,0,1-1.364,1.384,1.389,1.389,0,0,1-1.384-1.384A1.372,1.372,0,0,1,793.646,293.8Zm-15.433,9.86a.9.9,0,0,0,.915,1.149h22.663a2.029,2.029,0,0,0,1.871-1.617l2.923-16.66a.682.682,0,0,0-.7-.9H782.714A1.738,1.738,0,0,0,781.136,287Q779.675,295.33,778.213,303.662Zm-2.553-1.326h-4.949l.526,2.144a.688.688,0,0,0,.76.331h3.546a4.515,4.515,0,0,1-.039-1.618Z" fill="#4f4e75"/>
    </g>
  </g>
</svg>
