<svg width="48" height="48" viewBox="0 0 48 48" fill="none" xmlns="http://www.w3.org/2000/svg">
<g clip-path="url(#clip0_398_28263)">
<path d="M24 0C10.7625 0 0 10.7625 0 24C0 37.2375 10.7625 48 24 48C37.2375 48 48 37.2375 48 24C48 10.7625 37.2375 0 24 0ZM12.3 4.7625C15.4875 6.525 17.9625 8.1375 18.6375 8.8125C19.8 10.0125 21.075 11.925 21.075 12.9C21.075 13.8375 21.0375 15.525 21 16.4625L18.75 16.125C18 14.925 16.875 13.275 15.3 10.8L14.4375 9.45C14.2125 9.1125 13.7625 9 13.3875 9.225C13.05 9.45 12.9375 9.9 13.1625 10.275L14.025 11.625C19.05 19.3875 19.05 19.3875 19.6875 20.4C20.5875 21.825 20.175 22.95 19.5 23.3625C18.4875 24 17.5875 23.625 16.8 22.725C16.65 22.575 16.5375 22.425 16.35 22.125C16.05 21.7125 15.6375 21.075 14.7375 19.95C14.4 19.5375 10.95 15.525 10.5375 15.1125C9.975 14.55 9.225 14.3625 8.4 14.175C7.275 13.95 5.9625 13.6875 4.8 12.3375C6.6375 9.2625 9.225 6.675 12.3 4.7625ZM6.8625 15.375C7.3125 15.4875 8.1375 15.675 8.175 15.675C7.9875 16.8 7.725 19.275 8.325 20.0625C8.475 20.25 9.525 21.9 9.825 22.35C9.75 22.5375 9.6 22.7625 9.2625 22.9125C8.775 23.1375 8.3625 22.9875 8.1 22.575C7.6125 21.825 5.925 18.45 5.8875 17.8125C5.925 17.475 6.375 16.35 6.8625 15.375ZM10.9875 21.3375C10.725 20.9625 9.75 19.425 9.5625 19.1625C9.4125 18.75 9.4875 17.25 9.6 16.3125C9.675 16.425 9.7875 16.5 9.9 16.65C10.425 17.2125 11.2125 18.075 12.1875 19.2375L10.9875 21.3375ZM1.5 24C1.5 20.2875 2.4 16.8 4.0125 13.725C4.5 14.2125 4.9875 14.55 5.475 14.8125C5.1 15.6375 4.4625 17.1 4.4625 17.85C4.4625 19.0125 6.5625 22.95 6.9 23.4375C7.35 24.15 8.1 24.525 8.8875 24.525H9.1875L7.6875 27.1125C7.4625 27.4875 7.6125 27.9375 7.95 28.125L13.05 31.0875C13.1625 31.1625 13.3125 31.2 13.425 31.2C13.6875 31.2 13.95 31.05 14.0625 30.825C14.2875 30.45 14.1375 30 13.8 29.8125L9.375 27.225L13.275 20.5125C13.3875 20.6625 13.5 20.775 13.6125 20.925C14.475 22.0125 14.8875 22.6125 15.1875 23.025C15.4125 23.3625 15.5625 23.5875 15.825 23.8125C16.7625 24.825 17.4 25.05 18.225 25.1625C19.2 25.3125 20.1375 24.9375 20.625 24.45C21.675 23.4375 21.9375 22.2375 21.6 20.9625L22.5 21.45C22.6125 21.525 22.725 21.5625 22.875 21.5625C23.1375 21.5625 23.4 21.4125 23.5125 21.1875C23.7 20.8125 23.5875 20.3625 23.2125 20.175L20.2875 18.525C20.175 18.3375 20.025 18.1125 19.8375 17.85L25.3875 18.75H25.5C25.875 18.75 26.175 18.4875 26.25 18.1125C26.325 17.7 26.025 17.325 25.65 17.25L22.5 16.725C22.5375 15.825 22.575 13.95 22.575 12.9C22.575 11.1 20.7 8.7375 19.725 7.725C18.75 6.75 15.75 4.9875 13.8375 3.9C16.9125 2.3625 20.3625 1.5 24 1.5C29.925 1.5 35.325 3.825 39.3375 7.575L7.575 39.375C3.825 35.325 1.5 29.925 1.5 24ZM24 46.5C18.075 46.5 12.675 44.175 8.6625 40.425L40.425 8.625C44.175 12.675 46.5 18.075 46.5 24C46.5 36.4125 36.4125 46.5 24 46.5Z" fill="#212137"/>
<path d="M42.6376 20.5874C42.5251 20.4374 42.3376 20.3249 42.1501 20.2874L33.0376 18.6749C32.6251 18.5999 32.2501 18.8624 32.1751 19.2749C32.1001 19.6874 32.3626 20.0624 32.7751 20.1374L41.1001 21.5999L38.7751 33.2624L35.7001 32.7374L37.6876 29.1374C37.8751 28.7624 37.7626 28.3124 37.3876 28.1249L28.9126 23.3624C28.5376 23.1749 28.0876 23.2874 27.9001 23.6624C27.7126 24.0374 27.8251 24.4874 28.2001 24.6749L36.0751 29.0999L30.3751 39.3749L19.0126 32.8124C18.6376 32.5874 18.1876 32.7374 18.0001 33.0749C17.7751 33.4499 17.9251 33.8999 18.2626 34.0874L30.2251 41.0249C30.6001 41.2124 31.0501 41.1374 31.2751 40.7249L34.9126 34.1249L39.2251 34.8374H39.3376C39.6751 34.8374 40.0126 34.5749 40.0876 34.2374L42.7126 21.1124C42.7876 20.9624 42.75 20.7374 42.6376 20.5874Z" fill="#212137"/>
</g>
<defs>
<clipPath id="clip0_398_28263">
<rect width="48" height="48" fill="white"/>
</clipPath>
</defs>
</svg>
