<svg xmlns="http://www.w3.org/2000/svg" xmlns:xlink="http://www.w3.org/1999/xlink" width="102" height="102" viewBox="0 0 102 102">
  <defs>
    <clipPath id="clip-path">
      <rect id="Rectangle_627" data-name="Rectangle 627" width="102" height="102" transform="translate(416 4197)" fill="none" stroke="#707070" stroke-width="1"/>
    </clipPath>
    <clipPath id="clip-path-2">
      <rect id="Rectangle_368" data-name="Rectangle 368" width="88" height="88" transform="translate(460 240)" fill="#fff"/>
    </clipPath>
  </defs>
  <g id="Mask_Group_124" data-name="Mask Group 124" transform="translate(-416 -4197)" clip-path="url(#clip-path)">
    <g id="Group_423" data-name="Group 423" transform="translate(-37 3963)" clip-path="url(#clip-path-2)">
      <path id="Path_3678" data-name="Path 3678" d="M542.844,268.188h-16.5V262a5.162,5.162,0,0,0-5.156-5.156H510.856a1.719,1.719,0,1,0,0,3.437h10.332A1.721,1.721,0,0,1,522.906,262v52.25a1.721,1.721,0,0,1-1.718,1.719H486.812a1.721,1.721,0,0,1-1.718-1.719V262a1.721,1.721,0,0,1,1.718-1.719h10.294a1.719,1.719,0,1,0,0-3.437H486.812A5.162,5.162,0,0,0,481.656,262v6.188h-16.5A5.161,5.161,0,0,0,460,273.344v49.5A5.162,5.162,0,0,0,465.156,328h31.625a5.162,5.162,0,0,0,5.157-5.156v-3.438h4.124v3.438A5.162,5.162,0,0,0,511.219,328h31.625A5.162,5.162,0,0,0,548,322.844v-49.5A5.161,5.161,0,0,0,542.844,268.188Zm-16.5,15.123c.228-.019.458-.033.687-.033a8.032,8.032,0,1,1,0,16.065c-.229,0-.459-.014-.687-.033Zm-44.688,16c-.228.019-.457.033-.687.033a8.032,8.032,0,1,1,0-16.065c.229,0,.459.014.687.033ZM498.5,322.844a1.72,1.72,0,0,1-1.719,1.718H465.156a1.719,1.719,0,0,1-1.718-1.718v-49.5a1.72,1.72,0,0,1,1.718-1.719h16.5v8.237q-.344-.021-.687-.021a11.469,11.469,0,1,0,0,22.939q.344,0,.687-.021v4.96H471a1.719,1.719,0,1,0,0,3.437h10.656v3.094a5.126,5.126,0,0,0,.3,1.719h-7.367a1.719,1.719,0,1,0,0,3.437H498.5Zm46.062,0a1.719,1.719,0,0,1-1.718,1.718H511.219a1.72,1.72,0,0,1-1.719-1.718v-3.438h23.915a1.719,1.719,0,1,0,0-3.437h-7.367a5.125,5.125,0,0,0,.3-1.719v-3.094H537a1.719,1.719,0,1,0,0-3.437H526.344v-4.96c.229.014.458.022.687.022a11.47,11.47,0,0,0,0-22.94q-.344,0-.687.021v-8.237h16.5a1.72,1.72,0,0,1,1.718,1.719Z" fill="#4f4e75"/>
      <path id="Path_3679" data-name="Path 3679" d="M515.688,300.156a1.719,1.719,0,0,0-1.719-1.718H494.031a1.719,1.719,0,1,0,0,3.437h19.938A1.719,1.719,0,0,0,515.688,300.156Z" fill="#4f4e75"/>
      <rect id="Rectangle_367" data-name="Rectangle 367" width="41" height="59" rx="3.5" transform="translate(483.5 258.5)" fill="#d9ecfd" stroke="#2623d4" stroke-width="3"/>
      <path id="Path_3680" data-name="Path 3680" d="M497.616,306.688a1.719,1.719,0,1,0,0,3.437h12.769a1.719,1.719,0,1,0,0-3.437Z" fill="#2623d4"/>
      <path id="Path_3681" data-name="Path 3681" d="M504,266.125a14.088,14.088,0,0,0-9.448,24.543,1.8,1.8,0,0,0,.251.218,14.052,14.052,0,0,0,18.392,0,1.657,1.657,0,0,0,.253-.219A14.087,14.087,0,0,0,504,266.125ZM497.831,288.9a6.784,6.784,0,0,1,12.338,0,10.618,10.618,0,0,1-12.338,0Zm4.006-9.561v-.97a2.163,2.163,0,1,1,4.326,0v.97a2.163,2.163,0,0,1-4.326,0Zm10.864,7.021a10.263,10.263,0,0,0-4.14-3.78,5.556,5.556,0,0,0,1.039-3.242v-.97a5.6,5.6,0,0,0-11.2,0v.97a5.564,5.564,0,0,0,1.039,3.242,10.269,10.269,0,0,0-4.14,3.78,10.656,10.656,0,1,1,17.4,0Z" fill="#2623d4"/>
      <path id="Path_3682" data-name="Path 3682" d="M503.982,248.511a1.719,1.719,0,0,0,1.719-1.719v-5.073a1.719,1.719,0,0,0-3.438,0v5.073A1.719,1.719,0,0,0,503.982,248.511Z" fill="#2623d4"/>
      <path id="Path_3683" data-name="Path 3683" d="M491.3,252.215a1.719,1.719,0,0,0,2.431-2.43l-2.977-2.978a1.719,1.719,0,0,0-2.431,2.431Z" fill="#2623d4"/>
      <path id="Path_3684" data-name="Path 3684" d="M515.481,252.719a1.714,1.714,0,0,0,1.216-.5l2.977-2.977a1.719,1.719,0,1,0-2.431-2.431l-2.978,2.978a1.719,1.719,0,0,0,1.216,2.934Z" fill="#2623d4"/>
      <path id="Path_3685" data-name="Path 3685" d="M504,256.844a1.719,1.719,0,1,0,1.215.5A1.733,1.733,0,0,0,504,256.844Z" fill="#2623d4"/>
    </g>
  </g>
</svg>
