<svg width="47" height="46" viewBox="0 0 47 46" fill="none" xmlns="http://www.w3.org/2000/svg">
<g filter="url(#filter0_d_398_28360)">
<path d="M41 1.34823L40.0588 8.24009C37.6118 8.05127 35.8235 8.55478 34.6941 9.75063C33.5647 10.9465 32.8745 12.5514 32.6235 14.5655C32.3725 16.5795 32.3098 18.7509 32.4353 21.0797H41V41H24.9059V17.3033C24.9059 11.5129 26.349 7.17012 29.2353 4.27491C32.1843 1.3797 36.1059 0.40414 41 1.34823ZM17.0941 1.34823L16.1529 8.24009C13.7059 8.05127 11.9176 8.55478 10.7882 9.75063C9.65882 10.9465 8.96863 12.5514 8.71765 14.5655C8.46667 16.5795 8.40392 18.7509 8.52941 21.0797H17.0941V41H1V17.3033C1 11.5129 2.44314 7.17012 5.32941 4.27491C8.27843 1.3797 12.2 0.40414 17.0941 1.34823Z" fill="white"/>
<path d="M41.4954 1.41588L41.5594 0.94693L41.0947 0.85728C36.0771 -0.110625 31.9764 0.883149 28.885 3.91812L28.885 3.91809L28.8812 3.9219C25.8684 6.944 24.4059 11.4362 24.4059 17.3033V41V41.5H24.9059H41H41.5V41V21.0797V20.5797H41H32.9116C32.8199 18.4555 32.8899 16.4717 33.1197 14.6273C33.3606 12.6937 34.0169 11.1959 35.0576 10.0939C36.0404 9.05333 37.6479 8.55554 40.0204 8.73861L40.4904 8.77488L40.5542 8.30774L41.4954 1.41588ZM17.5895 1.41588L17.6536 0.94693L17.1888 0.85728C12.1712 -0.110625 8.0705 0.883149 4.97913 3.91812L4.97911 3.91809L4.97531 3.9219C1.96254 6.944 0.5 11.4362 0.5 17.3033V41V41.5H1H17.0941H17.5941V41V21.0797V20.5797H17.0941H9.00572C8.91402 18.4555 8.98397 16.4717 9.21381 14.6273C9.45476 12.6937 10.111 11.1959 11.1517 10.0939C12.1345 9.05333 13.742 8.55554 16.1145 8.73861L16.5845 8.77488L16.6483 8.30774L17.5895 1.41588Z" stroke="#212137"/>
</g>
<defs>
<filter id="filter0_d_398_28360" x="0" y="0.000488281" width="46.1189" height="45.9995" filterUnits="userSpaceOnUse" color-interpolation-filters="sRGB">
<feFlood flood-opacity="0" result="BackgroundImageFix"/>
<feColorMatrix in="SourceAlpha" type="matrix" values="0 0 0 0 0 0 0 0 0 0 0 0 0 0 0 0 0 0 127 0" result="hardAlpha"/>
<feOffset dx="4" dy="4"/>
<feComposite in2="hardAlpha" operator="out"/>
<feColorMatrix type="matrix" values="0 0 0 0 0.129412 0 0 0 0 0.129412 0 0 0 0 0.215686 0 0 0 1 0"/>
<feBlend mode="normal" in2="BackgroundImageFix" result="effect1_dropShadow_398_28360"/>
<feBlend mode="normal" in="SourceGraphic" in2="effect1_dropShadow_398_28360" result="shape"/>
</filter>
</defs>
</svg>
