<svg id="settings_remote_black_24dp" xmlns="http://www.w3.org/2000/svg" width="34" height="34" viewBox="0 0 34 34">
  <path id="Path_3733" data-name="Path 3733" d="M0,0H34V34H0Z" fill="none"/>
  <path id="Path_3734" data-name="Path 3734" d="M17.333,9h-8A1.337,1.337,0,0,0,8,10.333v16a1.337,1.337,0,0,0,1.333,1.333h8a1.337,1.337,0,0,0,1.333-1.333v-16A1.337,1.337,0,0,0,17.333,9ZM16,25H10.667V11.667H16Z" transform="translate(3.667 5)"/>
  <ellipse id="Ellipse_77" data-name="Ellipse 77" cx="1" cy="1.5" rx="1" ry="1.5" transform="translate(16 17.103)"/>
  <path id="Path_3735" data-name="Path 3735" d="M8.357,8.067l2.061,1.88a7.853,7.853,0,0,1,10.351,0l2.061-1.88a10.714,10.714,0,0,0-7.237-2.733A10.714,10.714,0,0,0,8.357,8.067ZM15.594,0A16.842,16.842,0,0,0,4.22,4.293l2.061,1.88a13.843,13.843,0,0,1,9.313-3.507,13.723,13.723,0,0,1,9.3,3.52l2.061-1.88A16.723,16.723,0,0,0,15.594,0Z" transform="translate(1.407)"/>
</svg>
