<svg width="48" height="48" viewBox="0 0 48 48" fill="none" xmlns="http://www.w3.org/2000/svg">
<g clip-path="url(#clip0_398_28336)">
<path d="M26.2136 11.9175L32.246 16.3433C32.474 16.5105 32.7765 16.5353 33.0286 16.4076C33.2807 16.2799 33.4397 16.0212 33.4397 15.7386V14.2093C36.6513 14.3064 39.6414 15.1289 40.6981 19.2436C40.7745 19.541 41.0244 19.7618 41.3289 19.8009C41.3611 19.8051 41.3931 19.807 41.4248 19.807C41.6945 19.807 41.9468 19.6613 42.0802 19.4213C43.3702 17.0998 43.35 14.3704 42.0261 12.1201C40.4765 9.48619 37.3718 7.90912 33.4397 7.73194V6.26391C33.4397 5.97263 33.271 5.70759 33.0071 5.58431C32.743 5.46113 32.4318 5.50172 32.2083 5.68875L26.1759 10.7376C25.9992 10.8855 25.9004 11.1064 25.9077 11.3367C25.9151 11.5671 26.0279 11.7812 26.2136 11.9175ZM31.9396 7.86966V8.46525C31.9396 8.87944 32.2754 9.21525 32.6896 9.21525C36.4309 9.21525 39.3626 10.5513 40.7332 12.8807C41.4609 14.1175 41.6914 15.5389 41.4233 16.9109C40.6515 15.3953 39.4956 14.2834 37.97 13.5936C36.2259 12.8049 34.3221 12.6986 32.6896 12.6986C32.2754 12.6986 31.9396 13.0344 31.9396 13.4486V14.2581L27.8722 11.274L31.9396 7.86966ZM21.4509 39.3517L15.4184 34.926C15.1904 34.7588 14.8881 34.734 14.6358 34.8617C14.3837 34.9894 14.2247 35.248 14.2247 35.5307V37.0599C11.0131 36.9628 8.02304 36.1403 6.9662 32.0257C6.88989 31.7283 6.64004 31.5075 6.33545 31.4683C6.03067 31.4292 5.73329 31.5795 5.58414 31.8479C4.29414 34.1694 4.31429 36.8989 5.63823 39.1492C7.18782 41.7831 10.2925 43.3601 14.2246 43.5373V45.0053C14.2246 45.2966 14.3933 45.5617 14.6572 45.6849C14.7585 45.7322 14.8668 45.7553 14.9745 45.7553C15.1473 45.7553 15.3183 45.6957 15.456 45.5805L21.4884 40.5316C21.6652 40.3837 21.764 40.1628 21.7567 39.9324C21.7494 39.7021 21.6366 39.488 21.4509 39.3517ZM15.7247 43.3995V42.8039C15.7247 42.3897 15.3889 42.0539 14.9747 42.0539C11.2334 42.0539 8.30167 40.718 6.93114 38.3885C6.20345 37.1516 5.97292 35.7303 6.24104 34.3582C7.01279 35.8739 8.16883 36.9858 9.69432 37.6756C11.4384 38.4642 13.3422 38.5705 14.9747 38.5705C15.3889 38.5705 15.7247 38.2347 15.7247 37.8205V37.0111L19.7922 39.9953L15.7247 43.3995ZM41.0889 34.2104C39.8536 33.9039 38.6197 33.6986 37.3906 33.5931C39.1983 32.6505 40.4745 30.3961 40.4745 27.7701C40.4745 24.5995 38.5705 22.6299 35.5058 22.6299C32.441 22.6299 30.537 24.5995 30.537 27.7701C30.537 30.39 31.8073 32.6404 33.6084 33.5868C32.3673 33.6906 31.1353 33.8986 29.9165 34.2119C26.9916 34.9639 25.3808 36.5697 25.3808 38.7337V45.907C25.3808 47.0611 26.3197 48 27.4737 48H43.5378C44.6919 48 45.6308 47.0611 45.6308 45.907V38.7337C45.6309 36.5751 43.9753 34.9263 41.0889 34.2104ZM32.0371 27.7701C32.0371 24.6028 34.2104 24.1299 35.5059 24.1299C36.8013 24.1299 38.9746 24.6028 38.9746 27.7701C38.9746 30.4139 37.4185 32.5648 35.5059 32.5648C33.5932 32.5648 32.0371 30.4139 32.0371 27.7701ZM44.1309 45.907C44.1309 46.2339 43.8648 46.5 43.5379 46.5H41.3708V40.6914C41.3708 40.2772 41.0349 39.9414 40.6208 39.9414C40.2066 39.9414 39.8708 40.2772 39.8708 40.6914V46.5H31.1409V40.6914C31.1409 40.2772 30.8051 39.9414 30.3909 39.9414C29.9768 39.9414 29.6409 40.2772 29.6409 40.6914V46.5H27.4739C27.147 46.5 26.8809 46.234 26.8809 45.907V38.7337C26.8809 36.9216 28.7349 36.0646 30.2902 35.6647C31.9888 35.228 33.715 35.0097 35.4579 35.0097C37.2024 35.0097 38.9635 35.2286 40.7279 35.6663C41.9989 35.9816 44.1309 36.7993 44.1309 38.7338V45.907H44.1309ZM18.0773 11.5804C16.842 11.274 15.6081 11.0687 14.3791 10.9631C16.1867 10.0206 17.463 7.76616 17.463 5.14012C17.463 1.96959 15.559 0 12.4943 0C9.42939 0 7.52542 1.96959 7.52542 5.14012C7.52542 7.76006 8.79573 10.0104 10.5969 10.9568C9.35579 11.0606 8.12392 11.2686 6.90498 11.582C3.98008 12.3339 2.36926 13.9399 2.36926 16.1038V23.2771C2.36926 24.4312 3.30817 25.3701 4.46223 25.3701H20.5263C21.6804 25.3701 22.6193 24.4312 22.6193 23.2771V16.1038C22.6192 13.9451 20.9637 12.2964 18.0773 11.5804ZM9.02542 5.14012C9.02542 1.97287 11.1987 1.5 12.4942 1.5C13.7896 1.5 15.9629 1.97287 15.9629 5.14012C15.9629 7.78397 14.4069 9.93488 12.4942 9.93488C10.5815 9.93488 9.02542 7.78397 9.02542 5.14012ZM21.1192 23.2771C21.1192 23.604 20.8531 23.8701 20.5262 23.8701H18.3591V18.0615C18.3591 17.6473 18.0233 17.3115 17.6091 17.3115C17.1949 17.3115 16.8591 17.6473 16.8591 18.0615V23.8701H8.12926V18.0615C8.12926 17.6473 7.79345 17.3115 7.37926 17.3115C6.96507 17.3115 6.62926 17.6473 6.62926 18.0615V23.8701H4.46223C4.13533 23.8701 3.86926 23.6041 3.86926 23.2771V16.1038C3.86926 14.2916 5.72317 13.4346 7.27848 13.0347C8.97704 12.5979 10.7033 12.3797 12.4461 12.3797C14.1906 12.3797 15.9518 12.5986 17.7162 13.0363C18.9872 13.3516 21.1193 14.1693 21.1193 16.1038V23.2771H21.1192Z" fill="black"/>
</g>
<defs>
<clipPath id="clip0_398_28336">
<rect width="48" height="48" fill="white"/>
</clipPath>
</defs>
</svg>
