<svg width="48" height="48" viewBox="0 0 48 48" fill="none" xmlns="http://www.w3.org/2000/svg">
<g clip-path="url(#clip0_398_28275)">
<path d="M46.3467 34.8775C46.1236 34.4977 45.2049 33.334 42.7486 34.3087L37.3721 36.4427C38.0829 34.7856 38.2652 32.8091 37.9142 30.5382C39.1506 29.6241 40.1042 28.3799 40.6655 26.9484C40.696 26.8698 40.7117 26.7862 40.7117 26.7019V19.9025C40.7117 19.73 40.6462 19.564 40.5283 19.438C40.4105 19.312 40.2492 19.2355 40.0771 19.224C38.1449 19.0946 36.1147 18.0214 35.14 16.6138C35.0774 16.5235 34.9938 16.4497 34.8965 16.3987C34.7991 16.3477 34.6908 16.321 34.5809 16.321C34.471 16.321 34.3627 16.3477 34.2654 16.3987C34.168 16.4497 34.0845 16.5235 34.0219 16.6138C33.623 17.1682 33.1247 17.6437 32.5524 18.0162C31.8783 16.939 31.1383 15.8225 30.3443 14.6844C30.4786 14.5694 30.5869 14.4272 30.662 14.2672C30.737 14.1072 30.7771 13.933 30.7796 13.7562V13.0973C30.7796 12.484 30.2998 11.9659 29.648 11.8097C29.648 11.8018 29.648 11.794 29.648 11.786V11.4565C29.648 10.8602 29.1942 10.3542 28.5699 10.1831C28.5919 10.1562 28.6132 10.1298 28.6355 10.1026C29.3667 9.20889 30.2773 8.09636 30.7772 5.79574C30.9105 5.18214 31.0041 4.41958 30.5404 3.96536C30.1239 3.55708 29.578 3.68749 29.3449 3.74317C29.3199 3.74917 29.2967 3.75517 29.2762 3.75883C27.868 4.01336 26.7742 3.92458 25.5203 0.448892C25.4751 0.323603 25.3941 0.214335 25.2874 0.13465C25.1807 0.0549659 25.053 0.00837301 24.92 0.000654798C24.787 -0.00706341 24.6547 0.0244329 24.5395 0.0912345C24.4243 0.158036 24.3312 0.257202 24.2719 0.376423C23.8737 1.1747 22.7642 2.43358 21.7165 2.72111C21.3626 2.81833 21.0663 2.78533 20.8105 2.62052C20.6432 2.50335 20.4435 2.44129 20.2393 2.44297C20.035 2.44465 19.8364 2.50999 19.671 2.62989C18.9604 3.14167 18.8891 4.64149 19.183 5.79283C19.5415 7.19767 20.2596 8.73517 21.2394 10.2138C20.6647 10.4082 20.2559 10.8916 20.2559 11.4572V11.7866V11.8104C19.6049 11.9662 19.125 12.4842 19.125 13.0975V13.7565C19.1275 13.9333 19.1676 14.1074 19.2426 14.2675C19.3176 14.4275 19.4259 14.5697 19.5602 14.6846C14.7883 21.5235 12.2008 27.2361 11.8558 31.6874C11.7445 31.702 11.6318 31.7171 11.516 31.7337C10.8895 31.8238 10.1541 32.0488 9.37558 32.2869C9.15798 32.3534 8.93655 32.4208 8.71258 32.4873L8.7407 31.7346C8.74734 31.5544 8.68212 31.3789 8.55938 31.2468C8.43664 31.1146 8.26645 31.0367 8.08623 31.03L3.79436 30.8715C3.62373 30.865 3.45689 30.923 3.32707 31.0339C3.19725 31.1448 3.11395 31.3006 3.09377 31.4701L1.38677 45.7406C1.37561 45.834 1.38392 45.9286 1.41118 46.0186C1.43844 46.1085 1.48405 46.1919 1.54513 46.2633C1.60621 46.3347 1.68145 46.3927 1.76608 46.4337C1.8507 46.4746 1.9429 46.4975 2.03683 46.501L7.50733 46.703H7.53245C7.70846 46.703 7.8776 46.6347 8.00433 46.5126C8.13105 46.3905 8.20547 46.2239 8.21195 46.048L8.24139 45.2512C10.2807 45.7398 11.7618 46.1904 13.0848 46.5931C15.6577 47.3764 17.5167 47.9424 21.1942 47.9961C21.3745 47.9988 21.5504 48.0001 21.7219 48.0001C26.0906 48.0001 27.7956 47.1539 30.3265 45.8975L30.6565 45.7339C37.1351 42.5276 45.0512 38.4859 45.5475 38.0811C46.5639 37.252 46.9149 35.8449 46.3467 34.8775ZM5.8368 42.6238C5.83027 42.7996 5.75588 42.9661 5.62925 43.0882C5.50261 43.2103 5.33359 43.2786 5.15767 43.2787C5.14914 43.2787 5.14061 43.2787 5.13208 43.2787C4.95186 43.272 4.78166 43.194 4.65893 43.0619C4.53619 42.9298 4.47097 42.7543 4.47761 42.574L4.53105 41.128C4.53772 40.9477 4.61574 40.7775 4.74792 40.6547C4.88011 40.532 5.05564 40.4668 5.23591 40.4734C5.41617 40.4801 5.5864 40.5581 5.70915 40.6903C5.83189 40.8225 5.8971 40.998 5.89042 41.1783L5.8368 42.6238ZM32.0362 23.8401C32.0993 23.7769 32.1743 23.7268 32.2568 23.6927C32.3393 23.6585 32.4277 23.6409 32.517 23.6409C32.6063 23.6409 32.6947 23.6585 32.7772 23.6927C32.8597 23.7268 32.9346 23.7769 32.9978 23.8401L34.2599 25.1023L37.1216 22.2228C37.2493 22.0972 37.4213 22.0271 37.6003 22.0275C37.7793 22.028 37.951 22.099 38.0779 22.2252C38.2049 22.3514 38.277 22.5226 38.2786 22.7016C38.2802 22.8807 38.2111 23.0531 38.0863 23.1815L34.7438 26.5449C34.6807 26.6083 34.6057 26.6587 34.5231 26.6931C34.4405 26.7275 34.3519 26.7453 34.2625 26.7455H34.2614C34.0811 26.7454 33.9081 26.6738 33.7806 26.5463L32.0361 24.8018C31.9729 24.7386 31.9228 24.6637 31.8887 24.5811C31.8545 24.4986 31.8369 24.4102 31.8369 24.3209C31.8369 24.2316 31.8545 24.1432 31.8887 24.0607C31.9229 23.9782 31.973 23.9032 32.0362 23.8401ZM25.1115 28.1578C24.3853 27.9829 24.3105 27.9212 24.3105 27.4971V27.2721C24.3126 27.1032 24.3811 26.9419 24.5012 26.8232C24.6214 26.7045 24.7835 26.6379 24.9524 26.6379C25.1213 26.6379 25.2834 26.7045 25.4035 26.8232C25.5237 26.9419 25.5922 27.1032 25.5942 27.2721C25.5942 27.4524 25.6659 27.6254 25.7934 27.7529C25.9209 27.8804 26.0939 27.952 26.2742 27.952C26.4545 27.952 26.6275 27.8804 26.755 27.7529C26.8825 27.6254 26.9542 27.4524 26.9542 27.2721C26.9534 26.8609 26.8262 26.4599 26.5897 26.1235C26.3532 25.7871 26.019 25.5316 25.6323 25.3917V24.9118C25.6323 24.7315 25.5607 24.5585 25.4331 24.431C25.3056 24.3035 25.1327 24.2319 24.9523 24.2319C24.772 24.2319 24.599 24.3035 24.4715 24.431C24.344 24.5585 24.2724 24.7315 24.2724 24.9118V25.3917C23.8857 25.5316 23.5514 25.7871 23.315 26.1235C23.0785 26.4599 22.9512 26.8609 22.9505 27.2721V27.4971C22.9505 29.0364 24.1492 29.3252 24.7931 29.48C25.5193 29.6549 25.5942 29.7165 25.5942 30.1407V30.3656C25.5953 30.4506 25.5794 30.5349 25.5476 30.6137C25.5158 30.6924 25.4687 30.7641 25.409 30.8245C25.3493 30.885 25.2782 30.933 25.1998 30.9657C25.1214 30.9984 25.0373 31.0153 24.9524 31.0153C24.8674 31.0153 24.7833 30.9984 24.7049 30.9657C24.6266 30.933 24.5555 30.885 24.4957 30.8245C24.436 30.7641 24.3889 30.6924 24.3571 30.6137C24.3253 30.5349 24.3095 30.4506 24.3105 30.3656C24.3084 30.1867 24.2358 30.0158 24.1085 29.8899C23.9812 29.7641 23.8095 29.6936 23.6305 29.6936C23.4515 29.6936 23.2798 29.7641 23.1525 29.8899C23.0252 30.0158 22.9526 30.1867 22.9505 30.3656C22.9512 30.7768 23.0784 31.1779 23.3149 31.5143C23.5514 31.8507 23.8857 32.1061 24.2724 32.246V32.726C24.2724 32.8586 24.3111 32.9884 24.384 33.0992C24.4568 33.2101 24.5604 33.2972 24.6821 33.3499L21.7158 33.7875C21.0517 33.3554 20.481 32.7945 20.0373 32.1381C19.5937 31.4817 19.286 30.743 19.1326 29.9658C18.9792 29.1885 18.9831 28.3883 19.1442 27.6125C19.3052 26.8368 19.62 26.1012 20.0701 25.4491C20.5202 24.7971 21.0964 24.2419 21.7646 23.8163C22.4329 23.3906 23.1797 23.1033 23.9609 22.9711C24.742 22.8389 25.5418 22.8647 26.3129 23.0468C27.0839 23.2289 27.8107 23.5636 28.4502 24.0313V26.7019C28.4502 26.7862 28.4658 26.8698 28.4964 26.9484C28.9754 28.1728 29.744 29.2629 30.7363 30.1254C30.4916 31.2032 29.9512 32.1914 29.1759 32.979C28.7885 32.8875 28.3906 32.849 27.9929 32.8646C27.9672 32.8655 27.9415 32.8678 27.916 32.8716L25.391 33.2446C25.4666 33.1809 25.5274 33.1015 25.5691 33.0118C25.6108 32.9221 25.6324 32.8244 25.6323 32.7255V32.2455C26.019 32.1057 26.3533 31.8502 26.5897 31.5138C26.8262 31.1774 26.9535 30.7764 26.9542 30.3652V30.1406C26.9542 28.6015 25.7555 28.3125 25.1115 28.1578ZM31.163 34.6178C31.0146 34.2254 30.7688 33.8773 30.4486 33.6062C31.1124 32.8432 31.6109 31.9508 31.9125 30.9854C32.691 31.4575 33.5388 31.8044 34.425 32.0132C34.5279 32.0375 34.6349 32.0375 34.7378 32.0132C35.3992 31.8571 36.0401 31.6243 36.6475 31.3195C36.9223 33.7464 36.4858 35.7365 35.3455 37.2473L28.6153 39.9191C25.956 40.2566 23.481 40.1169 21.1189 39.4916C27.1764 38.542 29.731 37.9679 30.3851 37.4276C30.7918 37.099 31.0854 36.6514 31.2249 36.1475C31.3644 35.6436 31.3428 35.1087 31.163 34.6178ZM20.5011 5.45627C20.3688 4.96549 20.3432 4.45205 20.4261 3.95055C20.9508 4.16628 21.5338 4.19524 22.0773 4.03258C23.1301 3.74364 24.0731 2.92127 24.7285 2.12336C25.8871 4.68714 27.2635 5.50399 29.5173 5.09767C29.5021 5.23538 29.4792 5.37212 29.4488 5.50727C29.0183 7.48858 28.289 8.37977 27.5831 9.24161C27.355 9.52024 27.1212 9.80617 26.9061 10.1212H22.8324C21.6997 8.5697 20.8757 6.92392 20.5011 5.45627ZM20.9363 15.0921H28.9688C29.8306 16.3145 30.6304 17.5121 31.3532 18.664C30.6334 18.9756 29.8666 19.1648 29.0845 19.2237C28.9124 19.2353 28.7511 19.3118 28.6333 19.4377C28.5155 19.5637 28.4499 19.7297 28.45 19.9022V22.425C26.97 21.6137 25.2542 21.3414 23.5957 21.6547C21.9373 21.9679 20.4391 22.8473 19.357 24.1425C18.2749 25.4378 17.6761 27.0685 17.6628 28.7563C17.6496 30.444 18.2227 32.084 19.2844 33.396C18.9059 33.2162 18.5422 33.0066 18.1969 32.7692C17.1519 32.0874 16.0758 31.3863 13.2314 31.5538C13.6354 27.3046 16.224 21.7734 20.9363 15.0921ZM44.6986 37.0184C44.1705 37.3781 37.6875 40.7363 30.0532 44.5148L29.7218 44.6792C27.1818 45.9402 25.6476 46.7016 21.2141 46.6362C17.7289 46.5852 16.0391 46.0707 13.4808 45.292C12.1509 44.8875 10.5188 44.3906 8.29258 43.8656L8.6598 33.9188C9.04239 33.8109 9.41261 33.698 9.77355 33.5875C10.5005 33.3652 11.187 33.155 11.7097 33.0798C15.3753 32.5525 16.3385 33.181 17.4537 33.9086C18.2813 34.4481 19.2188 35.06 21.1395 35.2289C21.1926 35.2335 21.2461 35.2319 21.2989 35.2241L28.0752 34.2228C28.9982 34.2017 29.6752 34.5276 29.8914 35.0991C29.9726 35.3234 29.9807 35.5676 29.9146 35.7968C29.8486 36.026 29.7116 36.2284 29.5235 36.375C29.4421 36.4336 28.8594 36.7594 25.3674 37.4031C23.2687 37.7902 20.9435 38.1452 19.4049 38.3801C18.8861 38.4594 18.469 38.523 18.1988 38.567C18.0535 38.5906 17.9197 38.6608 17.8177 38.7669C17.7157 38.8731 17.6509 39.0094 17.633 39.1556C17.6152 39.3017 17.6452 39.4497 17.7186 39.5773C17.792 39.7049 17.9049 39.8052 18.0402 39.8632C21.4194 41.3107 24.9632 41.7663 28.8742 41.2567C28.93 41.2494 28.9848 41.2352 29.0372 41.2145L43.2503 35.573C44.2145 35.1903 44.9516 35.1878 45.1741 35.5665C45.3727 35.9044 45.2255 36.5813 44.6986 37.0184Z" fill="#212137"/>
</g>
<defs>
<clipPath id="clip0_398_28275">
<rect width="48" height="48" fill="white"/>
</clipPath>
</defs>
</svg>
