<svg id="Group_936" data-name="Group 936" xmlns="http://www.w3.org/2000/svg" xmlns:xlink="http://www.w3.org/1999/xlink" width="86.841" height="88.645" viewBox="0 0 86.841 88.645">
  <defs>
    <clipPath id="clip-path">
      <rect id="Rectangle_850" data-name="Rectangle 850" width="86.841" height="88.645" transform="translate(0 0)" fill="none"/>
    </clipPath>
  </defs>
  <g id="Group_935" data-name="Group 935" clip-path="url(#clip-path)">
    <path id="Path_8489" data-name="Path 8489" d="M44.317,35.252a4.2,4.2,0,0,0-5.94-5.945l-6.959,6.968A9.443,9.443,0,1,0,15.15,38.957h-.812a6.413,6.413,0,0,0-6.39,6.4l.074,15.694a4.215,4.215,0,0,0,4.123,3.413l-.01,18.141c0,6.073,9.238,6.073,9.238,0V69.7a3.641,3.641,0,0,1,7.282,0v7.431a4.616,4.616,0,1,0,9.232,0V63.686a4.636,4.636,0,0,0-4.619-4.622h-1.5V47.805Z" fill="#d9ecfd"/>
    <path id="Path_8490" data-name="Path 8490" d="M66.608,1.423a8.729,8.729,0,1,1-8.717,8.729A8.726,8.726,0,0,1,66.608,1.423Z" fill="none" stroke="#4f4e75" stroke-linecap="round" stroke-linejoin="round" stroke-width="2.846"/>
    <path id="Path_8491" data-name="Path 8491" d="M72.8,27.3V37.337a4.2,4.2,0,1,0,8.4,0V22.432a6.414,6.414,0,0,0-6.4-6.4H73.053" fill="none" stroke="#4f4e75" stroke-linecap="round" stroke-linejoin="round" stroke-width="2.846"/>
    <path id="Path_8492" data-name="Path 8492" d="M57.376,26.653V59.52a4.616,4.616,0,1,0,9.232,0m0-18.14V59.52a4.618,4.618,0,0,0,9.237,0V41.38" fill="none" stroke="#4f4e75" stroke-linecap="round" stroke-linejoin="round" stroke-width="2.846"/>
    <path id="Path_8493" data-name="Path 8493" d="M58.579,13.56,43.351,28.589M45,34.36a4.141,4.141,0,0,0,4.98-.52l7.4-7.188V41.38H75.845A4.285,4.285,0,0,0,77,41.543a4.215,4.215,0,0,0,4.2-4.206V22.432a6.413,6.413,0,0,0-6.4-6.4H73.053" fill="none" stroke="#4f4e75" stroke-linecap="round" stroke-linejoin="round" stroke-width="2.846"/>
    <path id="Path_8494" data-name="Path 8494" d="M36.684,60.585c9.039-2.467,17.187-3.492,20.692-3.492M1.423,87.147c1.06-6.336,5.158-11.473,10.722-15.594m63.7-14.46c5.722,0,9.574,5.5,9.574,10.9l0,19.151H1.423" fill="none" stroke="#4f4e75" stroke-linecap="round" stroke-linejoin="round" stroke-width="2.846"/>
    <path id="Path_8495" data-name="Path 8495" d="M22.536,24.344a8.729,8.729,0,1,0,8.722,8.729A8.722,8.722,0,0,0,22.536,24.344Z" fill="none" stroke="#2623d4" stroke-width="2.97"/>
    <path id="Path_8496" data-name="Path 8496" d="M16.348,50.222V60.263a4.2,4.2,0,0,1-8.326.788L7.948,45.357a6.413,6.413,0,0,1,6.39-6.4h1.757" fill="none" stroke="#2623d4" stroke-width="2.97"/>
    <path id="Path_8497" data-name="Path 8497" d="M29.832,37.862l8.544-8.555a4.2,4.2,0,0,1,5.94,5.945L31.772,47.8V58.17" fill="none" stroke="#2623d4" stroke-width="2.97"/>
    <path id="Path_8498" data-name="Path 8498" d="M12.145,64.464l-.01,18.141c0,6.073,9.237,6.073,9.237,0V69.7a3.641,3.641,0,0,1,7.282,0v7.431a4.616,4.616,0,1,0,9.232,0V63.686a4.635,4.635,0,0,0-4.618-4.622H16.348" fill="none" stroke="#2623d4" stroke-width="2.97"/>
  </g>
</svg>
