<svg width="16" height="16" viewBox="0 0 16 16" fill="none" xmlns="http://www.w3.org/2000/svg">
<g clip-path="url(#clip0_1_282)">
<path d="M15.2 3.12505H11.8083V2.13338V2.13329C11.8074 1.35587 11.1775 0.726012 10.4001 0.725049H10.4L5.6 0.725049L5.59991 0.725049C4.82249 0.726012 4.19263 1.35587 4.19167 2.13329V2.13338V3.12505H0.8C0.316782 3.12505 -0.075 3.51683 -0.075 4.00005L-0.0750009 9.93599L-0.0749991 9.93636C-0.0732382 10.2883 0.13785 10.6032 0.458333 10.74V14.4C0.458333 14.8833 0.850115 15.275 1.33333 15.275H14.6667C15.1499 15.275 15.5417 14.8833 15.5417 14.4V10.7402C15.8621 10.6033 16.0734 10.2883 16.075 9.93633V9.93599V4.00005C16.075 3.51683 15.6832 3.12505 15.2 3.12505ZM15.3917 9.93599V9.93606C15.3918 10.0316 15.3215 10.1127 15.2269 10.126L15.1532 10.1362L15.1532 10.1362L9.14167 10.9652V10.6667C9.14167 10.1835 8.74988 9.79172 8.26667 9.79172H7.73333C7.25012 9.79172 6.85833 10.1835 6.85833 10.6667V10.9652L0.773323 10.126C0.773314 10.126 0.773306 10.126 0.773298 10.126C0.678704 10.1127 0.60824 10.0317 0.608333 9.93606V9.93599V4.00005C0.608333 3.8942 0.694156 3.80838 0.8 3.80838H15.2C15.3058 3.80838 15.3917 3.8942 15.3917 4.00005V9.93599ZM4.875 2.13338C4.875 1.73301 5.19963 1.40838 5.6 1.40838H10.4C10.8004 1.40838 11.125 1.73301 11.125 2.13338V3.12505H10.7417V2.13338C10.7417 1.9447 10.5887 1.79172 10.4 1.79172H5.6C5.41131 1.79172 5.25833 1.9447 5.25833 2.13338V3.12505H4.875V2.13338ZM10.0583 3.12505H5.94167V2.47505H10.0583V3.12505ZM14.8583 14.4C14.8583 14.5059 14.7725 14.5917 14.6667 14.5917H1.33333C1.22749 14.5917 1.14167 14.5059 1.14167 14.4V10.8666L6.85833 11.655V12.2667C6.85833 12.7499 7.25012 13.1417 7.73333 13.1417H8.26667C8.74988 13.1417 9.14167 12.7499 9.14167 12.2667V11.655L14.8583 10.8666V14.4ZM8.45833 12.2667C8.45833 12.3726 8.37251 12.4584 8.26667 12.4584H7.73333C7.62749 12.4584 7.54167 12.3726 7.54167 12.2667V10.6667C7.54167 10.5609 7.62749 10.475 7.73333 10.475H8.26667C8.37251 10.475 8.45833 10.5609 8.45833 10.6667V12.2667Z" fill="#838394" stroke="#838394" stroke-width="0.15"/>
</g>
<defs>
<clipPath id="clip0_1_282">
<rect width="16" height="16" fill="white"/>
</clipPath>
</defs>
</svg>
