<svg xmlns="http://www.w3.org/2000/svg" xmlns:xlink="http://www.w3.org/1999/xlink" width="102" height="102" viewBox="0 0 102 102">
  <defs>
    <clipPath id="clip-path">
      <rect id="Rectangle_626" data-name="Rectangle 626" width="102" height="102" transform="translate(107 4197)" fill="none" stroke="#707070" stroke-width="1"/>
    </clipPath>
  </defs>
  <g id="Mask_Group_125" data-name="Mask Group 125" transform="translate(-107 -4197)" clip-path="url(#clip-path)">
    <path id="Path_3666" data-name="Path 3666" d="M214.2,240.679H159.8a5.807,5.807,0,0,0-5.8,5.8V300.62a5.807,5.807,0,0,0,5.8,5.8h54.4a5.807,5.807,0,0,0,5.8-5.8V246.479A5.807,5.807,0,0,0,214.2,240.679Zm-54.4,3.867h54.4a1.936,1.936,0,0,1,1.934,1.933v9.668H157.867v-9.668A1.936,1.936,0,0,1,159.8,244.546Zm54.4,58.008H159.8a1.937,1.937,0,0,1-1.934-1.934v-40.6h58.266v40.6A1.937,1.937,0,0,1,214.2,302.554Z" transform="translate(-37 3963)" fill="#4f4e75"/>
    <circle id="Ellipse_65" data-name="Ellipse 65" cx="16.65" cy="16.65" r="16.65" transform="translate(158.75 4255.1)" fill="#d9ecfd" stroke="#2623d4" stroke-width="3"/>
    <path id="Path_3667" data-name="Path 3667" d="M216.727,311.063a4.155,4.155,0,0,0-3.073,1.359l-4.332-2.471a4.182,4.182,0,0,0,0-2.4l4.331-2.472a4.2,4.2,0,1,0-.925-1.634l-4.331,2.471a4.193,4.193,0,1,0,0,5.67l4.331,2.471a4.171,4.171,0,1,0,4-2.993Zm0-11.133a2.314,2.314,0,1,1-2.3,2.313A2.309,2.309,0,0,1,216.727,299.93Zm-11.4,11.133a2.313,2.313,0,1,1,2.3-2.313A2.31,2.31,0,0,1,205.324,311.063Zm11.4,6.507a2.314,2.314,0,1,1,2.3-2.313A2.31,2.31,0,0,1,216.727,317.57Z" transform="translate(-37 3963)" fill="#2623d4" stroke="#2623d4" stroke-width="0.5"/>
    <path id="Path_3668" data-name="Path 3668" d="M193.563,265.972a1.934,1.934,0,0,0-2.539,1.016l-11.6,27.07a1.933,1.933,0,1,0,3.554,1.523l11.6-27.07A1.934,1.934,0,0,0,193.563,265.972Z" transform="translate(-37 3963)" fill="#4f4e75"/>
    <path id="Path_3669" data-name="Path 3669" d="M176.908,272.342a1.933,1.933,0,0,0-2.717-.3l-9.668,7.734a1.934,1.934,0,0,0,0,3.02l9.668,7.735a1.933,1.933,0,0,0,2.415-3.02l-7.78-6.225,7.78-6.224A1.934,1.934,0,0,0,176.908,272.342Z" transform="translate(-37 3963)" fill="#4f4e75"/>
    <path id="Path_3670" data-name="Path 3670" d="M209.477,279.774l-9.668-7.734a1.933,1.933,0,0,0-2.415,3.02l7.78,6.224-7.78,6.225a1.933,1.933,0,1,0,2.415,3.019l9.668-7.734A1.934,1.934,0,0,0,209.477,279.774Z" transform="translate(-37 3963)" fill="#4f4e75"/>
    <path id="Path_3671" data-name="Path 3671" d="M163.8,252.28a1.934,1.934,0,1,0-1.934-1.933A1.932,1.932,0,0,0,163.8,252.28Z" transform="translate(-37 3963)" fill="#4f4e75"/>
    <path id="Path_3672" data-name="Path 3672" d="M171.531,252.28a1.934,1.934,0,1,0-1.933-1.933A1.933,1.933,0,0,0,171.531,252.28Z" transform="translate(-37 3963)" fill="#4f4e75"/>
    <path id="Path_3673" data-name="Path 3673" d="M179.266,252.28a1.934,1.934,0,1,0-1.934-1.933A1.932,1.932,0,0,0,179.266,252.28Z" transform="translate(-37 3963)" fill="#4f4e75"/>
    <path id="Path_3674" data-name="Path 3674" d="M198.6,252.28h11.6a1.934,1.934,0,1,0,0-3.867H198.6a1.934,1.934,0,1,0,0,3.867Z" transform="translate(-37 3963)" fill="#4f4e75"/>
  </g>
</svg>
