<svg width="48" height="48" viewBox="0 0 48 48" fill="none" xmlns="http://www.w3.org/2000/svg">
<path d="M47.685 17.5528L42.9762 8.40135C42.2582 7.00623 40.5391 6.4549 39.1438 7.17303L36.9526 8.30056C30.6667 3.12044 21.9453 2.17887 14.6956 5.90936C11.0266 7.79719 8.05575 10.7074 6.10417 14.3253C4.26308 17.7382 3.43595 21.562 3.70203 25.4096L1.54513 26.5194C0.86926 26.8671 0.369162 27.4573 0.137203 28.1811C-0.0947547 28.9049 -0.0310854 29.6758 0.316712 30.3517L5.02553 39.5031C5.52974 40.4829 6.5276 41.0465 7.56052 41.0464C7.99826 41.0464 8.44254 40.9451 8.85784 40.7314L10.9803 39.6392C13.9941 42.1477 17.6474 43.7253 21.5551 44.2026C22.3794 44.3032 23.204 44.3532 24.0258 44.3532C27.2426 44.3532 30.413 43.5868 33.3142 42.094C34.9468 41.2539 36.4532 40.2036 37.7916 38.9723C38.0766 38.7102 38.0951 38.2665 37.833 37.9815C37.5709 37.6965 37.1273 37.6781 36.8422 37.9402C35.5962 39.0865 34.1934 40.0644 32.6726 40.847C29.2812 42.592 25.4955 43.2713 21.7252 42.8104C18.285 42.3902 15.0569 41.0551 12.3437 38.9376L15.9139 37.1007C15.9349 37.1169 15.9567 37.1326 15.98 37.1467C18.1934 38.4951 20.7312 39.2701 23.3191 39.3877C23.5491 39.3982 23.7788 39.4034 24.0087 39.4034C26.4463 39.4034 28.8672 38.8175 31.0503 37.6943C33.4302 36.4696 35.4553 34.6433 36.9067 32.4126C38.314 30.2498 39.1627 27.7461 39.3612 25.1719C39.3648 25.1263 39.3635 25.0813 39.3584 25.0374L42.9363 23.1965C43.1303 27.74 41.6994 32.1738 38.8634 35.7617C38.6232 36.0655 38.6748 36.5065 38.9786 36.7466C39.1074 36.8484 39.2607 36.8977 39.413 36.8977C39.6201 36.8977 39.8252 36.8064 39.9636 36.6312C43.1427 32.6094 44.6773 27.5974 44.2995 22.495L46.4565 21.3851C47.8519 20.6672 48.4028 18.948 47.685 17.5528ZM7.33838 14.991C9.15505 11.6232 11.921 8.91407 15.3372 7.15629C21.9069 3.77602 29.7746 4.51547 35.5865 9.00345L32.0079 10.8447C29.8546 9.53777 27.4003 8.7714 24.8825 8.62545C22.148 8.46679 19.4081 9.04907 16.9594 10.3091C14.56 11.5437 12.5231 13.3884 11.0688 15.6436C9.67507 17.805 8.83942 20.3001 8.6472 22.8649L5.069 24.7061C4.94363 21.3294 5.72065 17.99 7.33838 14.991ZM35.7313 31.6477C34.4127 33.6744 32.5722 35.334 30.4087 36.4472C28.2371 37.5647 25.8073 38.0977 23.3828 37.9868C21.2923 37.8918 19.2383 37.3239 17.3946 36.3389L37.8857 25.7953C37.6142 27.8769 36.8771 29.8868 35.7313 31.6477ZM45.8149 20.1381L8.2161 39.4843C7.50844 39.8483 6.63652 39.569 6.27245 38.8614L1.56364 29.71C1.38722 29.3672 1.35496 28.9762 1.47258 28.6091C1.59019 28.242 1.84384 27.9428 2.18668 27.7663L16.2476 20.5313C16.5919 20.3541 16.7274 19.9314 16.5502 19.5869C16.3731 19.2427 15.9504 19.1072 15.6058 19.2843L10.1384 22.0976C10.4186 20.0744 11.1387 18.1228 12.2473 16.4037C13.5685 14.3547 15.4198 12.6784 17.601 11.5561C21.6635 9.46587 26.5043 9.51187 30.5156 11.6126L18.4379 17.8271C18.0935 18.0044 17.9581 18.4271 18.1352 18.7715C18.3124 19.1158 18.7351 19.2513 19.0796 19.0741L39.7855 8.42005C40.4931 8.05598 41.3651 8.33534 41.7291 9.043L46.438 18.1944C46.802 18.902 46.5226 19.774 45.8149 20.1381Z" fill="#212137"/>
<path d="M31.8201 22.6846L27.6721 18.937C27.6669 18.9325 27.6618 18.9279 27.6565 18.9234C27.4017 18.7068 27.0449 18.6655 26.7475 18.819C26.4501 18.9724 26.2768 19.2868 26.3058 19.6201C26.3062 19.6258 26.3068 19.6316 26.3074 19.6373L26.9291 25.1991C26.9692 25.5575 27.2727 25.8225 27.625 25.8225C27.651 25.8225 27.6774 25.821 27.7038 25.818C28.0887 25.775 28.3658 25.4281 28.3228 25.0433L28.2216 24.1383L30.2066 23.117L30.8798 23.7252C31.1672 23.9847 31.6106 23.9623 31.8702 23.6749C32.13 23.3876 32.1074 22.9443 31.8201 22.6846ZM28.0549 22.647L27.8717 21.0075L29.0944 22.1122L28.0549 22.647Z" fill="#212137"/>
<path d="M23.2723 21.3958C23.095 21.0516 22.6723 20.916 22.3279 21.0932C21.9835 21.2705 21.8481 21.6932 22.0252 22.0376L24.4523 26.7544C24.5768 26.996 24.8221 27.1349 25.0764 27.1349C25.1844 27.1349 25.2941 27.1097 25.3966 27.057C25.741 26.8797 25.8764 26.457 25.6993 26.1126L23.2723 21.3958Z" fill="#212137"/>
<path d="M14.444 26.727L15.1282 26.3749C15.4725 26.1976 15.608 25.775 15.4308 25.4305C15.2537 25.0862 14.831 24.9507 14.4864 25.1279L11.8816 26.4682C11.5372 26.6454 11.4018 27.0682 11.5789 27.4126C11.7033 27.6543 11.9487 27.7931 12.203 27.7931C12.311 27.7931 12.4206 27.768 12.5232 27.7152L13.1969 27.3686L15.3032 31.4619C15.4275 31.7036 15.6729 31.8424 15.9272 31.8424C16.0352 31.8424 16.1449 31.8173 16.2475 31.7646C16.5918 31.5874 16.7273 31.1646 16.5501 30.8202L14.444 26.727Z" fill="#212137"/>
<path d="M22.779 27.094L20.9345 26.3705C21.5746 25.7336 21.7711 24.7531 21.3502 23.9351C21.0929 23.4351 20.6451 23.0721 20.0892 22.9128C19.5514 22.7587 18.9799 22.8156 18.4798 23.073L17.2263 23.7179C17.2262 23.718 17.2261 23.7181 17.2259 23.7182C17.2255 23.7184 17.2252 23.7184 17.2248 23.7186C16.8805 23.8959 16.745 24.3186 16.9222 24.663L19.3492 29.3798C19.4737 29.6215 19.719 29.7603 19.9733 29.7603C20.0813 29.7603 20.1909 29.7351 20.2935 29.6824C20.6378 29.5052 20.7733 29.0825 20.5961 28.7381L19.9554 27.4929L22.2667 28.3996C22.3508 28.4327 22.4374 28.4483 22.5226 28.4483C22.8026 28.4483 23.0671 28.2794 23.1755 28.003C23.3172 27.6425 23.1395 27.2356 22.779 27.094ZM19.1216 24.3201C19.3005 24.2281 19.5125 24.2063 19.7031 24.2611C19.8829 24.3126 20.025 24.4247 20.1032 24.5768C20.2712 24.9033 20.1055 25.3374 19.7413 25.5247C19.5945 25.6004 19.3509 25.7269 19.1178 25.8482C18.9997 25.6215 18.617 24.8814 18.4936 24.6432L19.1216 24.3201Z" fill="#212137"/>
<path d="M35.481 20.2858C35.1691 20.4485 34.7778 20.6518 34.4583 20.8168L32.3522 16.7238C32.1749 16.3795 31.7523 16.2439 31.4078 16.4211C31.0635 16.5984 30.928 17.0211 31.1052 17.3655L33.5301 22.0783C33.653 22.3168 33.8967 22.4587 34.1536 22.4587C34.2234 22.4587 34.2942 22.4482 34.3637 22.4263C34.436 22.4037 34.4797 22.39 36.1296 21.5292C36.4729 21.35 36.6062 20.9265 36.427 20.5832C36.2478 20.24 35.8244 20.1067 35.481 20.2858Z" fill="#212137"/>
</svg>
